{
    "asset" : {
        "generator" : "Khronos glTF Blender I/O v1.8.19",
        "version" : "2.0"
    },
    "scene" : 0,
    "scenes" : [
        {
            "name" : "Scene",
            "nodes" : [
                0,
                1,
                2,
                3,
                4,
                5,
                6,
                7,
                8
            ]
        }
    ],
    "nodes" : [
        {
            "mesh" : 0,
            "name" : "Aura1",
            "rotation" : [
                0,
                -0.7071068286895752,
                0,
                0.7071068286895752
            ],
            "scale" : [
                2.7728347778320312,
                0.11348938941955566,
                1
            ],
            "translation" : [
                0.011547088623046875,
                0,
                -0.39505231380462646
            ]
        },
        {
            "mesh" : 1,
            "name" : "Aura2",
            "rotation" : [
                0,
                -0.7071068286895752,
                0,
                0.7071068286895752
            ],
            "scale" : [
                2.2452685832977295,
                0.0954873263835907,
                1
            ],
            "translation" : [
                0.011547088623046875,
                0,
                -0.6344550848007202
            ]
        },
        {
            "mesh" : 2,
            "name" : "Cockpit",
            "rotation" : [
                0.5,
                -0.5,
                -0.4999999701976776,
                0.5
            ],
            "scale" : [
                1,
                1,
                0.7209418416023254
            ],
            "translation" : [
                0.011547327041625977,
                0,
                -4.544825553894043
            ]
        },
        {
            "mesh" : 3,
            "name" : "Engines",
            "rotation" : [
                0.7070994973182678,
                -0.0032117736991494894,
                -0.0032116894144564867,
                0.7070994973182678
            ],
            "scale" : [
                0.8817960619926453,
                0.8817960619926453,
                0.8817960619926453
            ],
            "translation" : [
                -0.7688920497894287,
                -0.12667594850063324,
                7.296358585357666
            ]
        },
        {
            "mesh" : 4,
            "name" : "Flap1",
            "rotation" : [
                0.5,
                -0.5,
                -0.4999999701976776,
                0.5
            ],
            "scale" : [
                0.9089517593383789,
                0.9089517593383789,
                0.6553013324737549
            ],
            "translation" : [
                0.011546850204467773,
                0,
                4.360443592071533
            ]
        },
        {
            "mesh" : 5,
            "name" : "Flap2",
            "rotation" : [
                0.5,
                0.5,
                0.4999999701976776,
                0.5
            ],
            "scale" : [
                0.9089517593383789,
                0.9089517593383789,
                0.6553013324737549
            ],
            "translation" : [
                0.011546850204467773,
                0,
                4.360443592071533
            ]
        },
        {
            "mesh" : 6,
            "name" : "Fusalage",
            "rotation" : [
                0.5,
                -0.5,
                -0.4999999701976776,
                0.5
            ],
            "scale" : [
                1,
                1,
                0.7209418416023254
            ],
            "translation" : [
                0.011547088623046875,
                0,
                -0.8878864049911499
            ]
        },
        {
            "mesh" : 7,
            "name" : "Light1",
            "rotation" : [
                0.5,
                -0.5,
                -0.4999999701976776,
                0.5
            ],
            "scale" : [
                1,
                1,
                0.7209418416023254
            ],
            "translation" : [
                0.011547088623046875,
                0,
                -0.8878864049911499
            ]
        },
        {
            "mesh" : 8,
            "name" : "Wing",
            "rotation" : [
                0,
                -0.7071068286895752,
                0,
                0.7071068286895752
            ],
            "scale" : [
                2.2452685832977295,
                0.11348938941955566,
                1
            ],
            "translation" : [
                0.011546850204467773,
                0,
                4.608949184417725
            ]
        }
    ],
    "materials" : [
        {
            "doubleSided" : true,
            "emissiveFactor" : [
                1,
                1,
                0.006071105599403381
            ],
            "name" : "Halo",
            "pbrMetallicRoughness" : {
                "baseColorFactor" : [
                    0.9734455347061157,
                    0.30498725175857544,
                    0.00030355527997016907,
                    1
                ],
                "metallicFactor" : 0,
                "roughnessFactor" : 0.5
            }
        },
        {
            "doubleSided" : true,
            "name" : "Cockpit",
            "pbrMetallicRoughness" : {
                "baseColorFactor" : [
                    0.7083759307861328,
                    0.8796226382255554,
                    0.9822506904602051,
                    1
                ],
                "roughnessFactor" : 0
            }
        },
        {
            "doubleSided" : true,
            "name" : "Engine",
            "pbrMetallicRoughness" : {
                "baseColorFactor" : [
                    0.46778404712677,
                    0.4677838087081909,
                    0.4677838385105133,
                    1
                ],
                "roughnessFactor" : 0.5
            }
        },
        {
            "doubleSided" : true,
            "name" : "Jetblack_temp",
            "pbrMetallicRoughness" : {
                "baseColorFactor" : [
                    0.004391442984342575,
                    0.004391442984342575,
                    0.005181516520678997,
                    1
                ],
                "metallicFactor" : 0,
                "roughnessFactor" : 0
            }
        },
        {
            "doubleSided" : true,
            "emissiveFactor" : [
                1,
                1,
                0.006071105599403381
            ],
            "name" : "Halo2",
            "pbrMetallicRoughness" : {
                "baseColorFactor" : [
                    0.9734455347061157,
                    0.30498725175857544,
                    0.00030355527997016907,
                    1
                ],
                "metallicFactor" : 0,
                "roughnessFactor" : 0.5
            }
        }
    ],
    "meshes" : [
        {
            "name" : "Cube.002",
            "primitives" : [
                {
                    "attributes" : {
                        "POSITION" : 0,
                        "NORMAL" : 1,
                        "TEXCOORD_0" : 2
                    },
                    "indices" : 3,
                    "material" : 0
                }
            ]
        },
        {
            "name" : "Cube.004",
            "primitives" : [
                {
                    "attributes" : {
                        "POSITION" : 4,
                        "NORMAL" : 5,
                        "TEXCOORD_0" : 6
                    },
                    "indices" : 7,
                    "material" : 0
                }
            ]
        },
        {
            "name" : "Cylinder.001",
            "primitives" : [
                {
                    "attributes" : {
                        "POSITION" : 8,
                        "NORMAL" : 9,
                        "TEXCOORD_0" : 10
                    },
                    "indices" : 11,
                    "material" : 1
                }
            ]
        },
        {
            "name" : "Cylinder.002",
            "primitives" : [
                {
                    "attributes" : {
                        "POSITION" : 12,
                        "NORMAL" : 13,
                        "TEXCOORD_0" : 14
                    },
                    "indices" : 15,
                    "material" : 2
                }
            ]
        },
        {
            "name" : "Cylinder.005",
            "primitives" : [
                {
                    "attributes" : {
                        "POSITION" : 16,
                        "NORMAL" : 17,
                        "TEXCOORD_0" : 18
                    },
                    "indices" : 19,
                    "material" : 3
                }
            ]
        },
        {
            "name" : "Cylinder.006",
            "primitives" : [
                {
                    "attributes" : {
                        "POSITION" : 20,
                        "NORMAL" : 21,
                        "TEXCOORD_0" : 22
                    },
                    "indices" : 19,
                    "material" : 3
                }
            ]
        },
        {
            "name" : "Cylinder",
            "primitives" : [
                {
                    "attributes" : {
                        "POSITION" : 23,
                        "NORMAL" : 24,
                        "TEXCOORD_0" : 25
                    },
                    "indices" : 26,
                    "material" : 3
                }
            ]
        },
        {
            "name" : "Cylinder.003",
            "primitives" : [
                {
                    "attributes" : {
                        "POSITION" : 27,
                        "NORMAL" : 28,
                        "TEXCOORD_0" : 29
                    },
                    "indices" : 30,
                    "material" : 4
                }
            ]
        },
        {
            "name" : "Cube.001",
            "primitives" : [
                {
                    "attributes" : {
                        "POSITION" : 31,
                        "NORMAL" : 32,
                        "TEXCOORD_0" : 33
                    },
                    "indices" : 34,
                    "material" : 3
                }
            ]
        }
    ],
    "accessors" : [
        {
            "bufferView" : 0,
            "componentType" : 5126,
            "count" : 82,
            "max" : [
                1,
                1,
                7.3842034339904785
            ],
            "min" : [
                -0.027043461799621582,
                -1,
                -7.3842034339904785
            ],
            "type" : "VEC3"
        },
        {
            "bufferView" : 1,
            "componentType" : 5126,
            "count" : 82,
            "type" : "VEC3"
        },
        {
            "bufferView" : 2,
            "componentType" : 5126,
            "count" : 82,
            "type" : "VEC2"
        },
        {
            "bufferView" : 3,
            "componentType" : 5123,
            "count" : 108,
            "type" : "SCALAR"
        },
        {
            "bufferView" : 4,
            "componentType" : 5126,
            "count" : 86,
            "max" : [
                1.2648845911026,
                1,
                4.215634346008301
            ],
            "min" : [
                -1.3876522779464722,
                -1,
                -4.215634346008301
            ],
            "type" : "VEC3"
        },
        {
            "bufferView" : 5,
            "componentType" : 5126,
            "count" : 86,
            "type" : "VEC3"
        },
        {
            "bufferView" : 6,
            "componentType" : 5126,
            "count" : 86,
            "type" : "VEC2"
        },
        {
            "bufferView" : 7,
            "componentType" : 5123,
            "count" : 108,
            "type" : "SCALAR"
        },
        {
            "bufferView" : 8,
            "componentType" : 5126,
            "count" : 36,
            "max" : [
                -0.45705685019493103,
                0.6109113693237305,
                1.6038110256195068
            ],
            "min" : [
                -1.0223010778427124,
                -2.2311835289001465,
                -1.6038110256195068
            ],
            "type" : "VEC3"
        },
        {
            "bufferView" : 9,
            "componentType" : 5126,
            "count" : 36,
            "type" : "VEC3"
        },
        {
            "bufferView" : 10,
            "componentType" : 5126,
            "count" : 36,
            "type" : "VEC2"
        },
        {
            "bufferView" : 11,
            "componentType" : 5123,
            "count" : 72,
            "type" : "SCALAR"
        },
        {
            "bufferView" : 12,
            "componentType" : 5126,
            "count" : 459,
            "max" : [
                2.3007469177246094,
                0.7370525002479553,
                0.4780158996582031
            ],
            "min" : [
                -0.5248856544494629,
                -0.6277192234992981,
                -0.5994230508804321
            ],
            "type" : "VEC3"
        },
        {
            "bufferView" : 13,
            "componentType" : 5126,
            "count" : 459,
            "type" : "VEC3"
        },
        {
            "bufferView" : 14,
            "componentType" : 5126,
            "count" : 459,
            "type" : "VEC2"
        },
        {
            "bufferView" : 15,
            "componentType" : 5123,
            "count" : 1998,
            "type" : "SCALAR"
        },
        {
            "bufferView" : 16,
            "componentType" : 5126,
            "count" : 64,
            "max" : [
                -0.011051803827285767,
                2.59334659576416,
                5.148525714874268
            ],
            "min" : [
                -1.970708966255188,
                -2.7352943420410156,
                -5.148525714874268
            ],
            "type" : "VEC3"
        },
        {
            "bufferView" : 17,
            "componentType" : 5126,
            "count" : 64,
            "type" : "VEC3"
        },
        {
            "bufferView" : 18,
            "componentType" : 5126,
            "count" : 64,
            "type" : "VEC2"
        },
        {
            "bufferView" : 19,
            "componentType" : 5123,
            "count" : 96,
            "type" : "SCALAR"
        },
        {
            "bufferView" : 20,
            "componentType" : 5126,
            "count" : 64,
            "max" : [
                -0.011051803827285767,
                2.59334659576416,
                5.148525714874268
            ],
            "min" : [
                -1.970708966255188,
                -2.7352943420410156,
                -5.148525714874268
            ],
            "type" : "VEC3"
        },
        {
            "bufferView" : 21,
            "componentType" : 5126,
            "count" : 64,
            "type" : "VEC3"
        },
        {
            "bufferView" : 22,
            "componentType" : 5126,
            "count" : 64,
            "type" : "VEC2"
        },
        {
            "bufferView" : 23,
            "componentType" : 5126,
            "count" : 575,
            "max" : [
                1.1016374826431274,
                8.391634941101074,
                3.3044841289520264
            ],
            "min" : [
                -1.282096028327942,
                -8.463635444641113,
                -3.3044841289520264
            ],
            "type" : "VEC3"
        },
        {
            "bufferView" : 24,
            "componentType" : 5126,
            "count" : 575,
            "type" : "VEC3"
        },
        {
            "bufferView" : 25,
            "componentType" : 5126,
            "count" : 575,
            "type" : "VEC2"
        },
        {
            "bufferView" : 26,
            "componentType" : 5123,
            "count" : 3048,
            "type" : "SCALAR"
        },
        {
            "bufferView" : 27,
            "componentType" : 5126,
            "count" : 8,
            "max" : [
                0.1517949402332306,
                -4.92434549331665,
                1.2706036567687988
            ],
            "min" : [
                -7.661921699764207e-05,
                -5.888190269470215,
                -1.2706036567687988
            ],
            "type" : "VEC3"
        },
        {
            "bufferView" : 28,
            "componentType" : 5126,
            "count" : 8,
            "type" : "VEC3"
        },
        {
            "bufferView" : 29,
            "componentType" : 5126,
            "count" : 8,
            "type" : "VEC2"
        },
        {
            "bufferView" : 30,
            "componentType" : 5123,
            "count" : 12,
            "type" : "SCALAR"
        },
        {
            "bufferView" : 31,
            "componentType" : 5126,
            "count" : 76,
            "max" : [
                1,
                1,
                7.3842034339904785
            ],
            "min" : [
                -2.143603801727295,
                -1,
                -7.3842034339904785
            ],
            "type" : "VEC3"
        },
        {
            "bufferView" : 32,
            "componentType" : 5126,
            "count" : 76,
            "type" : "VEC3"
        },
        {
            "bufferView" : 33,
            "componentType" : 5126,
            "count" : 76,
            "type" : "VEC2"
        },
        {
            "bufferView" : 34,
            "componentType" : 5123,
            "count" : 108,
            "type" : "SCALAR"
        }
    ],
    "bufferViews" : [
        {
            "buffer" : 0,
            "byteLength" : 984,
            "byteOffset" : 0
        },
        {
            "buffer" : 0,
            "byteLength" : 984,
            "byteOffset" : 984
        },
        {
            "buffer" : 0,
            "byteLength" : 656,
            "byteOffset" : 1968
        },
        {
            "buffer" : 0,
            "byteLength" : 216,
            "byteOffset" : 2624
        },
        {
            "buffer" : 0,
            "byteLength" : 1032,
            "byteOffset" : 2840
        },
        {
            "buffer" : 0,
            "byteLength" : 1032,
            "byteOffset" : 3872
        },
        {
            "buffer" : 0,
            "byteLength" : 688,
            "byteOffset" : 4904
        },
        {
            "buffer" : 0,
            "byteLength" : 216,
            "byteOffset" : 5592
        },
        {
            "buffer" : 0,
            "byteLength" : 432,
            "byteOffset" : 5808
        },
        {
            "buffer" : 0,
            "byteLength" : 432,
            "byteOffset" : 6240
        },
        {
            "buffer" : 0,
            "byteLength" : 288,
            "byteOffset" : 6672
        },
        {
            "buffer" : 0,
            "byteLength" : 144,
            "byteOffset" : 6960
        },
        {
            "buffer" : 0,
            "byteLength" : 5508,
            "byteOffset" : 7104
        },
        {
            "buffer" : 0,
            "byteLength" : 5508,
            "byteOffset" : 12612
        },
        {
            "buffer" : 0,
            "byteLength" : 3672,
            "byteOffset" : 18120
        },
        {
            "buffer" : 0,
            "byteLength" : 3996,
            "byteOffset" : 21792
        },
        {
            "buffer" : 0,
            "byteLength" : 768,
            "byteOffset" : 25788
        },
        {
            "buffer" : 0,
            "byteLength" : 768,
            "byteOffset" : 26556
        },
        {
            "buffer" : 0,
            "byteLength" : 512,
            "byteOffset" : 27324
        },
        {
            "buffer" : 0,
            "byteLength" : 192,
            "byteOffset" : 27836
        },
        {
            "buffer" : 0,
            "byteLength" : 768,
            "byteOffset" : 28028
        },
        {
            "buffer" : 0,
            "byteLength" : 768,
            "byteOffset" : 28796
        },
        {
            "buffer" : 0,
            "byteLength" : 512,
            "byteOffset" : 29564
        },
        {
            "buffer" : 0,
            "byteLength" : 6900,
            "byteOffset" : 30076
        },
        {
            "buffer" : 0,
            "byteLength" : 6900,
            "byteOffset" : 36976
        },
        {
            "buffer" : 0,
            "byteLength" : 4600,
            "byteOffset" : 43876
        },
        {
            "buffer" : 0,
            "byteLength" : 6096,
            "byteOffset" : 48476
        },
        {
            "buffer" : 0,
            "byteLength" : 96,
            "byteOffset" : 54572
        },
        {
            "buffer" : 0,
            "byteLength" : 96,
            "byteOffset" : 54668
        },
        {
            "buffer" : 0,
            "byteLength" : 64,
            "byteOffset" : 54764
        },
        {
            "buffer" : 0,
            "byteLength" : 24,
            "byteOffset" : 54828
        },
        {
            "buffer" : 0,
            "byteLength" : 912,
            "byteOffset" : 54852
        },
        {
            "buffer" : 0,
            "byteLength" : 912,
            "byteOffset" : 55764
        },
        {
            "buffer" : 0,
            "byteLength" : 608,
            "byteOffset" : 56676
        },
        {
            "buffer" : 0,
            "byteLength" : 216,
            "byteOffset" : 57284
        }
    ],
    "buffers" : [
        {
            "byteLength" : 57500,
            "uri" : "data:application/octet-stream;base64,"
        }
    ]
}
